<mxfile host="app.diagrams.net" modified="2021-06-09T18:02:23.956Z" agent="5.0 (Windows NT 10.0; Win64; x64) AppleWebKit/537.36 (KHTML, like Gecko) Chrome/91.0.4472.77 Safari/537.36" etag="3xGaRdoLrwSafNKynXoV" version="14.7.6" type="github">
  <diagram id="GtHQIVkLR4EOPaM4o4iH" name="Page-1">
    <mxGraphModel dx="1422" dy="766" grid="1" gridSize="10" guides="1" tooltips="1" connect="1" arrows="1" fold="1" page="1" pageScale="1" pageWidth="827" pageHeight="1169" math="0" shadow="0">
      <root>
        <mxCell id="0" />
        <mxCell id="1" parent="0" />
        <mxCell id="8c71VGDixF2JB6lFDGNK-6" value="" style="rounded=0;whiteSpace=wrap;html=1;" vertex="1" parent="1">
          <mxGeometry x="20" y="410" width="800" height="750" as="geometry" />
        </mxCell>
        <mxCell id="8c71VGDixF2JB6lFDGNK-9" value="Mi Esquema" style="rounded=0;whiteSpace=wrap;html=1;" vertex="1" parent="1">
          <mxGeometry x="470" y="740" width="330" height="380" as="geometry" />
        </mxCell>
        <mxCell id="8c71VGDixF2JB6lFDGNK-7" value="Esquema Medicine" style="rounded=0;whiteSpace=wrap;html=1;" vertex="1" parent="1">
          <mxGeometry x="60" y="740" width="350" height="380" as="geometry" />
        </mxCell>
        <mxCell id="8c71VGDixF2JB6lFDGNK-1" value="Documento" style="ellipse;whiteSpace=wrap;html=1;" vertex="1" parent="1">
          <mxGeometry x="380" y="570" width="120" height="80" as="geometry" />
        </mxCell>
        <mxCell id="8c71VGDixF2JB6lFDGNK-4" style="edgeStyle=orthogonalEdgeStyle;rounded=0;orthogonalLoop=1;jettySize=auto;html=1;entryX=0.5;entryY=1;entryDx=0;entryDy=0;" edge="1" parent="1" source="8c71VGDixF2JB6lFDGNK-2" target="8c71VGDixF2JB6lFDGNK-1">
          <mxGeometry relative="1" as="geometry" />
        </mxCell>
        <mxCell id="8c71VGDixF2JB6lFDGNK-2" value="Esquema de Medicina" style="ellipse;whiteSpace=wrap;html=1;" vertex="1" parent="1">
          <mxGeometry x="140" y="800" width="120" height="80" as="geometry" />
        </mxCell>
        <mxCell id="8c71VGDixF2JB6lFDGNK-5" style="edgeStyle=orthogonalEdgeStyle;rounded=0;orthogonalLoop=1;jettySize=auto;html=1;" edge="1" parent="1" source="8c71VGDixF2JB6lFDGNK-3" target="8c71VGDixF2JB6lFDGNK-1">
          <mxGeometry relative="1" as="geometry" />
        </mxCell>
        <mxCell id="8c71VGDixF2JB6lFDGNK-3" value="Instancias" style="ellipse;whiteSpace=wrap;html=1;" vertex="1" parent="1">
          <mxGeometry x="650" y="800" width="120" height="80" as="geometry" />
        </mxCell>
        <mxCell id="8c71VGDixF2JB6lFDGNK-10" value="Esquema VIVO" style="text;html=1;strokeColor=none;fillColor=none;align=center;verticalAlign=middle;whiteSpace=wrap;rounded=0;" vertex="1" parent="1">
          <mxGeometry x="364" y="430" width="100" height="20" as="geometry" />
        </mxCell>
        <mxCell id="8c71VGDixF2JB6lFDGNK-16" style="edgeStyle=orthogonalEdgeStyle;rounded=0;orthogonalLoop=1;jettySize=auto;html=1;" edge="1" parent="1" source="8c71VGDixF2JB6lFDGNK-11" target="8c71VGDixF2JB6lFDGNK-3">
          <mxGeometry relative="1" as="geometry" />
        </mxCell>
        <mxCell id="8c71VGDixF2JB6lFDGNK-11" value="" style="ellipse;whiteSpace=wrap;html=1;" vertex="1" parent="1">
          <mxGeometry x="620" y="990" width="40" height="30" as="geometry" />
        </mxCell>
        <mxCell id="8c71VGDixF2JB6lFDGNK-17" style="edgeStyle=orthogonalEdgeStyle;rounded=0;orthogonalLoop=1;jettySize=auto;html=1;" edge="1" parent="1" source="8c71VGDixF2JB6lFDGNK-12" target="8c71VGDixF2JB6lFDGNK-3">
          <mxGeometry relative="1" as="geometry" />
        </mxCell>
        <mxCell id="8c71VGDixF2JB6lFDGNK-12" value="" style="ellipse;whiteSpace=wrap;html=1;" vertex="1" parent="1">
          <mxGeometry x="710" y="945" width="40" height="30" as="geometry" />
        </mxCell>
        <mxCell id="8c71VGDixF2JB6lFDGNK-19" style="edgeStyle=orthogonalEdgeStyle;rounded=0;orthogonalLoop=1;jettySize=auto;html=1;" edge="1" parent="1" source="8c71VGDixF2JB6lFDGNK-13" target="8c71VGDixF2JB6lFDGNK-3">
          <mxGeometry relative="1" as="geometry" />
        </mxCell>
        <mxCell id="8c71VGDixF2JB6lFDGNK-13" value="" style="ellipse;whiteSpace=wrap;html=1;" vertex="1" parent="1">
          <mxGeometry x="740" y="990" width="40" height="30" as="geometry" />
        </mxCell>
        <mxCell id="8c71VGDixF2JB6lFDGNK-18" style="edgeStyle=orthogonalEdgeStyle;rounded=0;orthogonalLoop=1;jettySize=auto;html=1;" edge="1" parent="1" source="8c71VGDixF2JB6lFDGNK-14" target="8c71VGDixF2JB6lFDGNK-3">
          <mxGeometry relative="1" as="geometry" />
        </mxCell>
        <mxCell id="8c71VGDixF2JB6lFDGNK-14" value="" style="ellipse;whiteSpace=wrap;html=1;" vertex="1" parent="1">
          <mxGeometry x="680" y="990" width="40" height="30" as="geometry" />
        </mxCell>
        <mxCell id="8c71VGDixF2JB6lFDGNK-27" style="edgeStyle=orthogonalEdgeStyle;rounded=0;orthogonalLoop=1;jettySize=auto;html=1;" edge="1" parent="1" source="8c71VGDixF2JB6lFDGNK-20" target="8c71VGDixF2JB6lFDGNK-2">
          <mxGeometry relative="1" as="geometry" />
        </mxCell>
        <mxCell id="8c71VGDixF2JB6lFDGNK-20" value="" style="ellipse;whiteSpace=wrap;html=1;" vertex="1" parent="1">
          <mxGeometry x="80" y="930" width="30" height="20" as="geometry" />
        </mxCell>
        <mxCell id="8c71VGDixF2JB6lFDGNK-28" style="edgeStyle=orthogonalEdgeStyle;rounded=0;orthogonalLoop=1;jettySize=auto;html=1;" edge="1" parent="1" source="8c71VGDixF2JB6lFDGNK-21" target="8c71VGDixF2JB6lFDGNK-2">
          <mxGeometry relative="1" as="geometry" />
        </mxCell>
        <mxCell id="8c71VGDixF2JB6lFDGNK-21" value="" style="ellipse;whiteSpace=wrap;html=1;" vertex="1" parent="1">
          <mxGeometry x="80" y="970" width="30" height="20" as="geometry" />
        </mxCell>
        <mxCell id="8c71VGDixF2JB6lFDGNK-29" style="edgeStyle=orthogonalEdgeStyle;rounded=0;orthogonalLoop=1;jettySize=auto;html=1;" edge="1" parent="1" source="8c71VGDixF2JB6lFDGNK-22" target="8c71VGDixF2JB6lFDGNK-2">
          <mxGeometry relative="1" as="geometry" />
        </mxCell>
        <mxCell id="8c71VGDixF2JB6lFDGNK-22" value="" style="ellipse;whiteSpace=wrap;html=1;" vertex="1" parent="1">
          <mxGeometry x="70" y="1000" width="30" height="20" as="geometry" />
        </mxCell>
        <mxCell id="8c71VGDixF2JB6lFDGNK-30" style="edgeStyle=orthogonalEdgeStyle;rounded=0;orthogonalLoop=1;jettySize=auto;html=1;" edge="1" parent="1" source="8c71VGDixF2JB6lFDGNK-23" target="8c71VGDixF2JB6lFDGNK-2">
          <mxGeometry relative="1" as="geometry" />
        </mxCell>
        <mxCell id="8c71VGDixF2JB6lFDGNK-23" value="" style="ellipse;whiteSpace=wrap;html=1;" vertex="1" parent="1">
          <mxGeometry x="130" y="1010" width="30" height="20" as="geometry" />
        </mxCell>
        <mxCell id="8c71VGDixF2JB6lFDGNK-31" style="edgeStyle=orthogonalEdgeStyle;rounded=0;orthogonalLoop=1;jettySize=auto;html=1;entryX=0.5;entryY=1;entryDx=0;entryDy=0;" edge="1" parent="1" source="8c71VGDixF2JB6lFDGNK-24" target="8c71VGDixF2JB6lFDGNK-2">
          <mxGeometry relative="1" as="geometry" />
        </mxCell>
        <mxCell id="8c71VGDixF2JB6lFDGNK-24" value="" style="ellipse;whiteSpace=wrap;html=1;" vertex="1" parent="1">
          <mxGeometry x="140" y="1040" width="30" height="20" as="geometry" />
        </mxCell>
      </root>
    </mxGraphModel>
  </diagram>
</mxfile>
